<svg width="40" height="40" viewBox="0 0 40 40" fill="none" xmlns="http://www.w3.org/2000/svg">
<circle cx="20" cy="20" r="20" fill="#D9435E"/>
<path d="M12 20C12 20.2652 12.1054 20.5196 12.2929 20.7071C12.4804 20.8946 12.7348 21 13 21H20.59L18.29 23.29C18.1963 23.383 18.1219 23.4936 18.0711 23.6154C18.0203 23.7373 17.9942 23.868 17.9942 24C17.9942 24.132 18.0203 24.2627 18.0711 24.3846C18.1219 24.5064 18.1963 24.617 18.29 24.71C18.383 24.8037 18.4936 24.8781 18.6154 24.9289C18.7373 24.9797 18.868 25.0058 19 25.0058C19.132 25.0058 19.2627 24.9797 19.3846 24.9289C19.5064 24.8781 19.617 24.8037 19.71 24.71L23.71 20.71C23.801 20.6149 23.8724 20.5028 23.92 20.38C24.02 20.1365 24.02 19.8635 23.92 19.62C23.8724 19.4972 23.801 19.3851 23.71 19.29L19.71 15.29C19.6168 15.1968 19.5061 15.1228 19.3842 15.0723C19.2624 15.0219 19.1319 14.9959 19 14.9959C18.8681 14.9959 18.7376 15.0219 18.6158 15.0723C18.4939 15.1228 18.3832 15.1968 18.29 15.29C18.1968 15.3832 18.1228 15.4939 18.0723 15.6158C18.0219 15.7376 17.9959 15.8681 17.9959 16C17.9959 16.1319 18.0219 16.2624 18.0723 16.3842C18.1228 16.5061 18.1968 16.6168 18.29 16.71L20.59 19H13C12.7348 19 12.4804 19.1054 12.2929 19.2929C12.1054 19.4804 12 19.7348 12 20ZM25 10H15C14.2044 10 13.4413 10.3161 12.8787 10.8787C12.3161 11.4413 12 12.2044 12 13V16C12 16.2652 12.1054 16.5196 12.2929 16.7071C12.4804 16.8946 12.7348 17 13 17C13.2652 17 13.5196 16.8946 13.7071 16.7071C13.8946 16.5196 14 16.2652 14 16V13C14 12.7348 14.1054 12.4804 14.2929 12.2929C14.4804 12.1054 14.7348 12 15 12H25C25.2652 12 25.5196 12.1054 25.7071 12.2929C25.8946 12.4804 26 12.7348 26 13V27C26 27.2652 25.8946 27.5196 25.7071 27.7071C25.5196 27.8946 25.2652 28 25 28H15C14.7348 28 14.4804 27.8946 14.2929 27.7071C14.1054 27.5196 14 27.2652 14 27V24C14 23.7348 13.8946 23.4804 13.7071 23.2929C13.5196 23.1054 13.2652 23 13 23C12.7348 23 12.4804 23.1054 12.2929 23.2929C12.1054 23.4804 12 23.7348 12 24V27C12 27.7956 12.3161 28.5587 12.8787 29.1213C13.4413 29.6839 14.2044 30 15 30H25C25.7956 30 26.5587 29.6839 27.1213 29.1213C27.6839 28.5587 28 27.7956 28 27V13C28 12.2044 27.6839 11.4413 27.1213 10.8787C26.5587 10.3161 25.7956 10 25 10Z" fill="white"/>
</svg>
