<svg width="40" height="40" viewBox="0 0 40 40" fill="none" xmlns="http://www.w3.org/2000/svg">
<circle cx="20" cy="20" r="20" fill="#1ABC9C"/>
<path d="M28 20C28 19.7348 27.8946 19.4804 27.7071 19.2929C27.5196 19.1054 27.2652 19 27 19H19.41L21.71 16.71C21.8032 16.6168 21.8772 16.5061 21.9277 16.3842C21.9781 16.2624 22.0041 16.1319 22.0041 16C22.0041 15.8681 21.9781 15.7376 21.9277 15.6158C21.8772 15.4939 21.8032 15.3832 21.71 15.29C21.6168 15.1968 21.5061 15.1228 21.3842 15.0723C21.2624 15.0219 21.1319 14.9959 21 14.9959C20.8681 14.9959 20.7376 15.0219 20.6158 15.0723C20.4939 15.1228 20.3832 15.1968 20.29 15.29L16.29 19.29C16.199 19.3851 16.1276 19.4972 16.08 19.62C15.98 19.8635 15.98 20.1365 16.08 20.38C16.1276 20.5028 16.199 20.6149 16.29 20.71L20.29 24.71C20.383 24.8037 20.4936 24.8781 20.6154 24.9289C20.7373 24.9797 20.868 25.0058 21 25.0058C21.132 25.0058 21.2627 24.9797 21.3846 24.9289C21.5064 24.8781 21.617 24.8037 21.71 24.71C21.8037 24.617 21.8781 24.5064 21.9289 24.3846C21.9797 24.2627 22.0058 24.132 22.0058 24C22.0058 23.868 21.9797 23.7373 21.9289 23.6154C21.8781 23.4936 21.8037 23.383 21.71 23.29L19.41 21H27C27.2652 21 27.5196 20.8946 27.7071 20.7071C27.8946 20.5196 28 20.2652 28 20ZM25 10H15C14.2044 10 13.4413 10.3161 12.8787 10.8787C12.3161 11.4413 12 12.2044 12 13V27C12 27.7956 12.3161 28.5587 12.8787 29.1213C13.4413 29.6839 14.2044 30 15 30H25C25.7956 30 26.5587 29.6839 27.1213 29.1213C27.6839 28.5587 28 27.7956 28 27V24C28 23.7348 27.8946 23.4804 27.7071 23.2929C27.5196 23.1054 27.2652 23 27 23C26.7348 23 26.4804 23.1054 26.2929 23.2929C26.1054 23.4804 26 23.7348 26 24V27C26 27.2652 25.8946 27.5196 25.7071 27.7071C25.5196 27.8946 25.2652 28 25 28H15C14.7348 28 14.4804 27.8946 14.2929 27.7071C14.1054 27.5196 14 27.2652 14 27V13C14 12.7348 14.1054 12.4804 14.2929 12.2929C14.4804 12.1054 14.7348 12 15 12H25C25.2652 12 25.5196 12.1054 25.7071 12.2929C25.8946 12.4804 26 12.7348 26 13V16C26 16.2652 26.1054 16.5196 26.2929 16.7071C26.4804 16.8946 26.7348 17 27 17C27.2652 17 27.5196 16.8946 27.7071 16.7071C27.8946 16.5196 28 16.2652 28 16V13C28 12.2044 27.6839 11.4413 27.1213 10.8787C26.5587 10.3161 25.7956 10 25 10Z" fill="white"/>
</svg>
