<svg width="512" height="512" viewBox="0 0 512 512" fill="none" xmlns="http://www.w3.org/2000/svg">
<path d="M448 440C445.569 440 443.17 439.446 440.985 438.381C438.8 437.315 436.887 435.766 435.39 433.85C412.53 404.58 391.32 381.99 362.07 366.85C335 352.88 301 345.59 256 344.23V424C255.99 427.123 255.067 430.175 253.344 432.78C251.621 435.384 249.173 437.428 246.302 438.658C243.432 439.888 240.264 440.251 237.189 439.702C234.115 439.154 231.268 437.717 229 435.57L53 267.57C51.436 266.076 50.1911 264.28 49.3406 262.292C48.49 260.303 48.0515 258.163 48.0515 256C48.0515 253.837 48.49 251.697 49.3406 249.708C50.1911 247.719 51.436 245.924 53 244.43L229 76.43C231.268 74.2828 234.115 72.8464 237.189 72.2977C240.264 71.749 243.432 72.1121 246.302 73.3422C249.173 74.5723 251.621 76.6157 253.344 79.2203C255.067 81.8249 255.99 84.8769 256 88V168.36C330.14 171.77 385.38 199.27 420.35 250.23C449.32 292.44 464 350.9 464 424C464 428.243 462.314 432.313 459.314 435.314C456.313 438.314 452.243 440 448 440Z" fill="black"/>
</svg>
