<svg width="256" height="256" viewBox="0 0 256 256" fill="none" xmlns="http://www.w3.org/2000/svg">
<path opacity="0.2" d="M216 160L160 216V160H216Z" fill="white"/>
<path d="M88 96C88 93.8783 88.8429 91.8434 90.3431 90.3431C91.8434 88.8429 93.8783 88 96 88H160C162.122 88 164.157 88.8429 165.657 90.3431C167.157 91.8434 168 93.8783 168 96C168 98.1217 167.157 100.157 165.657 101.657C164.157 103.157 162.122 104 160 104H96C93.8783 104 91.8434 103.157 90.3431 101.657C88.8429 100.157 88 98.1217 88 96ZM96 136H160C162.122 136 164.157 135.157 165.657 133.657C167.157 132.157 168 130.122 168 128C168 125.878 167.157 123.843 165.657 122.343C164.157 120.843 162.122 120 160 120H96C93.8783 120 91.8434 120.843 90.3431 122.343C88.8429 123.843 88 125.878 88 128C88 130.122 88.8429 132.157 90.3431 133.657C91.8434 135.157 93.8783 136 96 136ZM128 152H96C93.8783 152 91.8434 152.843 90.3431 154.343C88.8429 155.843 88 157.878 88 160C88 162.122 88.8429 164.157 90.3431 165.657C91.8434 167.157 93.8783 168 96 168H128C130.122 168 132.157 167.157 133.657 165.657C135.157 164.157 136 162.122 136 160C136 157.878 135.157 155.843 133.657 154.343C132.157 152.843 130.122 152 128 152ZM224 48V156.69C224.007 158.792 223.596 160.874 222.79 162.816C221.985 164.757 220.802 166.52 219.31 168L168 219.31C166.52 220.802 164.757 221.985 162.816 222.79C160.874 223.596 158.792 224.007 156.69 224H48C43.7565 224 39.6869 222.314 36.6863 219.314C33.6857 216.313 32 212.243 32 208V48C32 43.7565 33.6857 39.6869 36.6863 36.6863C39.6869 33.6857 43.7565 32 48 32H208C212.243 32 216.313 33.6857 219.314 36.6863C222.314 39.6869 224 43.7565 224 48ZM48 208H152V160C152 157.878 152.843 155.843 154.343 154.343C155.843 152.843 157.878 152 160 152H208V48H48V208ZM168 168V196.7L196.69 168H168Z" fill="white"/>
</svg>
