<svg width="20" height="20" viewBox="0 0 20 20" fill="none" xmlns="http://www.w3.org/2000/svg">
<path d="M0 20L1.5 18.5L3 20L4.5 18.5L6 20L7.5 18.5V17.63L10.13 15H3V13H12.13L14.13 11H3V9H15V10.13L18 7.13V0L16.5 1.5L15 0L13.5 1.5L12 0L10.5 1.5L9 0L7.5 1.5L6 0L4.5 1.5L3 0L1.5 1.5L0 0V20ZM3 7V5H15V7H3ZM10 20V17.96L16.13 11.83L18.17 13.87L12.04 20H10ZM18 10.03C18.0905 9.99677 18.1887 9.99042 18.2827 10.0117C18.3768 10.033 18.4626 10.081 18.53 10.15L19.85 11.47C20.05 11.67 20.05 12 19.85 12.19L18.87 13.17L16.83 11.13L17.81 10.15L17.83 10.13C17.88 10.09 17.94 10.05 18 10.03Z" fill="white"/>
</svg>
