<svg width="24" height="24" viewBox="0 0 24 24" fill="none" xmlns="http://www.w3.org/2000/svg">
<path d="M6 8.99994H3C2.45 8.99994 2 8.54994 2 7.99994C2 7.44994 2.45 6.99994 3 6.99994H6C6.55 6.99994 7 7.44994 7 7.99994C7 8.54994 6.55 8.99994 6 8.99994ZM6 11.9999H3C2.45 11.9999 2 12.4499 2 12.9999C2 13.5499 2.45 13.9999 3 13.9999H6C6.55 13.9999 7 13.5499 7 12.9999C7 12.4499 6.55 11.9999 6 11.9999ZM19.88 18.2899L16.76 15.1699C15.9 15.7299 14.87 16.0499 13.76 15.9899C11.39 15.8799 9.36 14.0299 9.04 11.6799C8.93439 10.8989 9.01444 10.1039 9.27365 9.35958C9.53287 8.61524 9.96394 7.94252 10.5319 7.39601C11.0998 6.84951 11.7886 6.44462 12.5424 6.21421C13.2961 5.98381 14.0936 5.93438 14.87 6.06994C16.82 6.39994 18.44 7.91994 18.87 9.84994C19.2 11.3099 18.88 12.6699 18.17 13.7499L21.3 16.8799C21.69 17.2699 21.69 17.8999 21.3 18.2899C20.91 18.6799 20.27 18.6799 19.88 18.2899ZM17 10.9999C17 9.34994 15.65 7.99994 14 7.99994C12.35 7.99994 11 9.34994 11 10.9999C11 12.6499 12.35 13.9999 14 13.9999C15.65 13.9999 17 12.6499 17 10.9999ZM3 18.9999H11C11.55 18.9999 12 18.5499 12 17.9999C12 17.4499 11.55 16.9999 11 16.9999H3C2.45 16.9999 2 17.4499 2 17.9999C2 18.5499 2.45 18.9999 3 18.9999Z" fill="white"/>
</svg>
