<svg width="20" height="20" viewBox="0 0 20 20" fill="none" xmlns="http://www.w3.org/2000/svg">
<path d="M3.33333 20H17.7778C18.3671 20 18.9324 19.7893 19.3491 19.4142C19.7659 19.0391 20 18.5304 20 18V2C20 1.46957 19.7659 0.960859 19.3491 0.585786C18.9324 0.210714 18.3671 0 17.7778 0H2.22222C1.63285 0 1.06762 0.210714 0.650874 0.585786C0.234126 0.960859 0 1.46957 0 2V18C0 18.5304 0.234126 19.0391 0.650874 19.4142C1.06762 19.7893 1.63285 20 2.22222 20H3.33333ZM10 2.999C11.83 2.999 13.3333 4.35 13.3333 5.999C13.3333 7.647 11.83 9 10 9C8.17 9 6.66667 7.647 6.66667 5.999C6.66667 4.35 8.17 2.999 10 2.999ZM3.33333 15.25C3.33333 13.031 6.33889 10.75 10 10.75C13.6611 10.75 16.6667 13.031 16.6667 15.25V16H3.33333V15.25Z" fill="black"/>
</svg>
