<svg width="513" height="512" viewBox="0 0 513 512" fill="none" xmlns="http://www.w3.org/2000/svg">
<path d="M400.11 320C400.11 408.37 344.48 464 256.11 464C167.74 464 112.11 408.37 112.11 320C112.11 225.17 215.34 97.15 247 60.12C248.126 58.8044 249.524 57.7482 251.098 57.024C252.671 56.2999 254.382 55.9249 256.115 55.9249C257.847 55.9249 259.558 56.2999 261.132 57.024C262.705 57.7482 264.103 58.8044 265.23 60.12C296.88 97.15 400.11 225.17 400.11 320Z" stroke="white" stroke-width="32" stroke-miterlimit="10"/>
<path d="M344.11 328C344.11 347.096 336.524 365.409 323.021 378.912C309.519 392.414 291.205 400 272.11 400" stroke="white" stroke-width="32" stroke-linecap="round" stroke-linejoin="round"/>
</svg>
